<?xml version="1.0" encoding="UTF-8" standalone="no"?>
<svg width="256px" height="256px" viewBox="0 0 256 256" version="1.1" xmlns="http://www.w3.org/2000/svg" xmlns:xlink="http://www.w3.org/1999/xlink">
    <!-- Generator: Sketch 3.7.1 (28215) - http://www.bohemiancoding.com/sketch -->
    <title>256 #3</title>
    <desc>Created with Sketch.</desc>
    <defs></defs>
    <g id="Page-1" stroke="none" stroke-width="1" fill="none" fill-rule="evenodd">
        <g id="256-#3">
            <path d="M221.80347,209.312198 C199.04897,236.032058 165.029046,253 127.015444,253 C86.1398848,253 49.8819905,233.380925 27.2826835,203.114418 C11.4161779,182.37467 2,156.509385 2,128.461686 C2,128.141459 2.00122742,127.821517 2.00367786,127.501864 C2.00122742,127.180968 2,126.859783 2,126.538314 C2,57.7577025 58.1882639,2 127.5,2 C196.811736,2 253,57.7577025 253,126.538314 C253,126.698977 252.999693,126.859569 252.999081,127.020089 C252.999693,127.179988 253,127.339958 253,127.5 C253,158.874857 241.217331,187.518812 221.80347,209.312198 Z M71.8844349,17.3876522 C30.7723533,37.342669 2.37462718,79.1124346 2.00367786,127.501864 C2.10195231,140.371341 4.16733063,152.77624 7.91619556,164.435118 C12.0622009,178.540259 18.6837098,191.598096 27.2826835,203.114418 C50.0247238,232.841454 86.0186611,252.038314 126.530888,252.038314 C146.905618,252.038314 166.137508,247.182728 183.115565,238.574034 C166.617701,246.581784 148.072374,251.076628 128.469112,251.076628 C128.307835,251.076628 128.146629,251.076324 127.985495,251.075716 C127.823735,251.076324 127.661904,251.076628 127.5,251.076628 C71.5042415,251.076628 24.07384,214.684992 7.91619556,164.435118 C4.69593323,153.479448 2.96911197,141.891946 2.96911197,129.904215 C2.96911197,129.743867 2.96942093,129.583592 2.97003828,129.423388 C2.96942095,129.263162 2.96911197,129.102881 2.96911197,128.942529 C2.96911197,105.156175 9.76786232,82.9455862 21.5421917,64.1199633 C33.5378608,44.2341574 51.0071754,27.9734299 71.8844349,17.3876522 Z M221.80347,209.312198 C225.385626,205.105792 228.68859,200.657703 231.683992,195.996085 C245.060136,176.277588 252.90163,152.554769 252.999081,127.020089 C252.738446,58.9913384 197.084345,3.92337165 128.469112,3.92337165 C108.094382,3.92337165 88.8624923,8.778958 71.8844349,17.3876522 C88.3823135,9.37989792 106.927634,4.88505747 126.530888,4.88505747 C195.307398,4.88505747 251.061776,60.2121986 251.061776,128.461686 C251.061776,128.541922 251.061699,128.622141 251.061545,128.702342 C250.93092,60.8288444 195.443643,5.8467433 127.015444,5.8467433 C82.4765788,5.8467433 43.4201461,29.139957 21.5421917,64.1199633 C10.363463,82.6514874 3.93822394,104.331146 3.93822394,127.5 C3.93822394,195.589446 59.4314259,250.817079 127.985495,251.075716 C155.669313,250.971676 181.239764,241.972826 201.94555,226.80938 C196.058415,231.261635 189.759564,235.205206 183.115565,238.574034 C197.890613,231.402505 211.023494,221.41346 221.80347,209.312198 Z M251.061545,128.702342 C251.061699,128.782386 251.061776,128.862448 251.061776,128.942529 C251.061776,129.102881 251.061467,129.263162 251.06085,129.423371 C251.061467,129.583592 251.061776,129.743867 251.061776,129.904215 C251.061776,154.227348 243.952712,176.902795 231.683992,195.996085 C223.62094,207.882266 213.546817,218.313437 201.94555,226.80938 C231.736792,204.279207 250.984674,168.723015 251.061545,128.702342 Z" id="Base" stroke="#555555" stroke-width="5" fill="#FFFFFF"></path>
            <circle id="Oval-18" fill="#FFFFFF" cx="127.5" cy="128" r="122.5"></circle>
            <g id="eM-©" transform="translate(46.000000, 52.000000)">
                <g id="M">
                    <g id="Left" transform="translate(0.372726, 0.000000)">
                        <path d="M81.4991676,101.109346 C81.4991676,101.109346 44.9872024,53.2380515 21.156651,24.0294347 C9.6125126,9.88002164 1.04430304,-2.43947473 1.04430304,1.98009751 L1.04430304,149.919107 L58.5889379,149.919107 L77.2296153,130.296606 L81.4991676,125.802173" id="M" stroke="#444444" stroke-width="5" fill="#7949A5"></path>
                        <path d="M7.31012125,149.846578 C5.30077711,149.846578 3.15221704,148.213482 2.81201078,146.661994 C2.47180453,145.110506 6.21847037,6.39336484 6.21847037,6.39336484 C6.21847037,6.39336484 7.34012965,9.48611928 7.31012113,9.33862319 C7.10543073,8.3325411 11.7869145,11.5622575 11.7869145,11.5622575 C11.7869145,11.5622575 8.56226211,7.85328886 5.54578641,4.58044074 C3.85258681,2.74333489 2.2249789,0.329417663 1.27008635,0.526186069 C0.0336267871,1.3550486 1.02834919,1.52282095 1.02834919,1.52282095 L1.02834919,149.846578" id="Path-4" fill="#444444"></path>
                        <path d="M2.04640432,2.98140999 L81.2033515,101.01721 C81.2033515,101.01721 78.5647817,96.7417288 70.9561464,86.7097428 C63.3392658,76.6668854 49.8549704,60.6795436 43.7917776,52.9983395 C30.5315238,36.1994811 2.96671305,1.5623122 2.96671305,1.5623122 L2.29925104,2.02459098 L1.2556622,3.38279733" id="Path-5" fill="#444444"></path>
                        <polyline id="Path-6" fill="#444444" points="82.2675828 125.897238 81.1837575 124.673811 55.1825179 149.575355 58.6717945 150.023274 79.7482402 127.465152"></polyline>
                    </g>
                    <g id="RIght" transform="translate(122.307791, 75.500000) scale(-1, 1) translate(-122.307791, -75.500000) translate(81.307791, 0.000000)">
                        <path d="M81.4991676,101.109346 C81.4991676,101.109346 44.9872024,53.2380515 21.156651,24.0294347 C9.6125126,9.88002164 1.04430304,-2.43947473 1.04430304,1.98009751 L1.04430304,149.919107 L58.5889379,149.919107 L77.2296153,130.296606 L81.3077874,125.830374" id="M" stroke="#444444" stroke-width="5" fill="#7949A5"></path>
                        <path d="M7.31012125,149.846578 C5.30077711,149.846578 3.15221704,148.213482 2.81201078,146.661994 C2.47180453,145.110506 6.21847037,6.39336484 6.21847037,6.39336484 C6.21847037,6.39336484 7.34012965,9.48611928 7.31012113,9.33862319 C7.10543073,8.3325411 11.7869145,11.5622575 11.7869145,11.5622575 C11.7869145,11.5622575 8.56226211,7.85328886 5.54578641,4.58044074 C3.85258681,2.74333489 2.2249789,0.329417663 1.27008635,0.526186069 C0.0336267871,1.3550486 1.02834919,1.52282095 1.02834919,1.52282095 L1.02834919,149.846578" id="Path-4" fill="#444444"></path>
                        <path d="M2.04640432,2.98140999 L81.2033515,101.01721 C81.2033515,101.01721 78.5647817,96.7417288 70.9561464,86.7097428 C63.3392658,76.6668854 49.8549704,60.6795436 43.7917776,52.9983395 C30.5315238,36.1994811 2.96671305,1.5623122 2.96671305,1.5623122 L2.29925104,2.02459098 L1.2556622,3.38279733" id="Path-5" fill="#444444"></path>
                        <path d="M81.7548809,126.069554 L80.4008184,125.031681 C80.4008184,125.031681 79.9147611,125.57082 79.4009072,126.069554 C71.3281108,133.904821 55.1825179,149.575355 55.1825179,149.575355 L58.6717945,150.023274 L79.7482402,127.465152" id="Path-6" fill="#444444"></path>
                    </g>
                </g>
                <g id="filleroo" transform="translate(77.000000, 99.000000)">
                    <path d="M0,11.9966858 C0,9.23709245 2.24419519,7 5,7 L5,7 C7.76142375,7 10,9.24157855 10,11.9966858 L10,18.0033142 C10,20.7629076 7.76114962,23.0964937 5.00607279,23.2374744 C5.00607279,23.2374744 2.14550042,23.3187275 5,23.3187275 C7.85449958,23.3187275 5.00672185,23.2382991 5.00672185,23.2382991 C2.24158573,23.1066901 0,20.7584215 0,18.0033142 L0,11.9966858 Z" id="Rectangle-8" fill="#7A49A4"></path>
                    <path d="M3.76030123,23.6746348 L6.60739271,23.6563436 L6.44800632,26.9887343 C6.44800632,26.9887343 5.33516349,26.7725217 4.8175476,26.7725217 C4.42651049,26.7725217 3.64443629,26.7725217 3.64443629,26.7725217 L3.76030123,23.6746348 Z" id="Rectangle-1" fill="#444444" transform="translate(5.125915, 25.322539) rotate(-45.000000) translate(-5.125915, -25.322539) "></path>
                    <polygon id="Rectangle-2" fill="#444444" transform="translate(4.863129, 3.500104) rotate(47.000000) translate(-4.863129, -3.500104) " points="3.59797625 2.6385188 6.14394985 1.50212553 6.9701067 5.49808291 2.75615225 4.90112095"></polygon>
                </g>
            </g>
            <g id="Bullshit-bars" transform="translate(105.000000, 37.000000)" stroke="#444444" stroke-width="4" stroke-linecap="round">
                <path d="M0,1.40909091 L46,1.40909091" id="Line"></path>
                <path d="M9.58333333,15.5 L36.4166667,15.5" id="Line-Copy"></path>
                <path d="M0,29.5909091 L46,29.5909091" id="Line-Copy-2"></path>
            </g>
        </g>
    </g>
</svg>